<svg xmlns="http://www.w3.org/2000/svg" style="display:none">
  <symbol id="icon-arrow-up" viewBox="0 0 16 16">
    <path d="M8 3l5 5H9v5H7V8H3z" />
  </symbol>
  <symbol id="icon-briefcase" viewBox="0 0 16 16">
    <path d="M4 4V3h8v1h2v9H2V4h2zm1 0h6V4H5z" />
  </symbol>
  <symbol id="icon-building" viewBox="0 0 16 16">
    <path d="M2 2h12v12H2V2zm2 2v8h8V4H4z" />
  </symbol>
  <symbol id="icon-calendar-alt" viewBox="0 0 16 16">
    <path d="M2 2h12v12H2V2zm1 3h10M5 1v2m6-2v2" fill="none" stroke="currentColor"/>
  </symbol>
  <symbol id="icon-check" viewBox="0 0 16 16">
    <path d="M2 8l4 4 8-8" fill="none" stroke="currentColor"/>
  </symbol>
  <symbol id="icon-chevron-down" viewBox="0 0 16 16">
    <path d="M2 5l6 6 6-6" fill="none" stroke="currentColor"/>
  </symbol>
  <symbol id="icon-chevron-up" viewBox="0 0 16 16">
    <path d="M2 11l6-6 6 6" fill="none" stroke="currentColor"/>
  </symbol>
  <symbol id="icon-code" viewBox="0 0 16 16">
    <path d="M5 3l-3 5 3 5M11 3l3 5-3 5" fill="none" stroke="currentColor"/>
  </symbol>
  <symbol id="icon-download" viewBox="0 0 16 16">
    <path d="M8 2v8m0 0l3-3m-3 3L5 7M2 13h12" fill="none" stroke="currentColor"/>
  </symbol>
  <symbol id="icon-exclamation-circle" viewBox="0 0 16 16">
    <circle cx="8" cy="8" r="7" fill="none" stroke="currentColor"/>
    <path d="M8 4v5m0 2v1" stroke="currentColor"/>
  </symbol>
  <symbol id="icon-external-link-alt" viewBox="0 0 16 16">
    <path d="M10 2h4v4M6 10l8-8M3 3h6v2H5v8H3z" fill="none" stroke="currentColor"/>
  </symbol>
  <symbol id="icon-file-alt" viewBox="0 0 16 16">
    <path d="M3 2h5l5 5v7H3z" fill="none" stroke="currentColor"/>
  </symbol>
  <symbol id="icon-github" viewBox="0 0 16 16">
    <path d="M8 1A7 7 0 001 8c0 3 2 5 4 6v-3c-1 0-2-1-2-1s0-1 1-1c1 0 2 1 2 1 1-1 3-1 4 0 0 0 1-1 2-1s1 1 1 1c0 0-1 1-2 1v3c2-1 4-3 4-6a7 7 0 00-7-7z"/>
  </symbol>
  <symbol id="icon-graduation-cap" viewBox="0 0 16 16">
    <path d="M8 2L1 5l7 3 7-3-7-3zm-5 4v3c2 2 8 2 10 0V6" fill="none" stroke="currentColor"/>
  </symbol>
  <symbol id="icon-language" viewBox="0 0 16 16">
    <circle cx="8" cy="8" r="7" fill="none" stroke="currentColor"/>
    <path d="M1 8h14M8 1a13 13 0 010 14M8 1a13 13 0 000 14" fill="none" stroke="currentColor"/>
  </symbol>
  <symbol id="icon-linkedin" viewBox="0 0 16 16">
    <path d="M2 5h3v9H2zM3.5 2.5a1.5 1.5 0 110 3 1.5 1.5 0 010-3zM6 5h3v1a2 2 0 013-1c1.5 0 3 1 3 3v6h-3V8c0-1-1-1-1-1s-1 0-1 1v6H6z"/>
  </symbol>
  <symbol id="icon-network-wired" viewBox="0 0 16 16">
    <path d="M2 2h3v3H2zm9 0h3v3h-3zM2 11h3v3H2zm9 0h3v3h-3zM5 8h6M8 5v3v3" fill="none" stroke="currentColor"/>
  </symbol>
  <symbol id="icon-project-diagram" viewBox="0 0 16 16">
    <circle cx="8" cy="8" r="2"/>
    <path d="M8 6V3m0 5v3m2-2h3m-7 0H3" fill="none" stroke="currentColor"/>
  </symbol>
  <symbol id="icon-puzzle-piece" viewBox="0 0 16 16">
    <path d="M5 1h3v2h2v2h2v3h-2v2H8v2H5V8H3V5h2V3h2z"/>
  </symbol>
  <symbol id="icon-server" viewBox="0 0 16 16">
    <rect x="2" y="3" width="12" height="3" rx="1"/>
    <rect x="2" y="8" width="12" height="3" rx="1"/>
  </symbol>
  <symbol id="icon-times" viewBox="0 0 16 16">
    <path d="M3 3l10 10M13 3L3 13" fill="none" stroke="currentColor"/>
  </symbol>
  <symbol id="icon-tools" viewBox="0 0 16 16">
    <path d="M6 1l1 2-2 2 2 2-1 2-3-3 3-3zm4 8l3 3-2 2-3-3z"/>
  </symbol>
  <symbol id="icon-trophy" viewBox="0 0 16 16">
    <path d="M4 2h8v2h2v2c0 3-2 5-6 5s-6-2-6-5V4h2V2zm4 9v3" fill="none" stroke="currentColor"/>
  </symbol>
  <symbol id="icon-vmware" viewBox="0 0 16 16">
    <rect x="2" y="2" width="6" height="6" rx="1"/>
    <rect x="8" y="8" width="6" height="6" rx="1"/>
    <rect x="5" y="5" width="6" height="6" rx="1"/>
  </symbol>
</svg>
